/* XPM */
static char * back_xpm[] = {
"64 64 210 2",
"  	c #5C94FC",
". 	c #CF510C",
"+ 	c #00A800",
"@ 	c #FFFFFF",
"# 	c #80D010",
"$ 	c #CE4C00",
"% 	c #EEAE9B",
"& 	c #CD4900",
"* 	c #5591FD",
"= 	c #5E97FF",
"- 	c #D4530C",
"; 	c #00A600",
"> 	c #000000",
", 	c #D5530C",
"' 	c #7BCF00",
") 	c #5893FD",
"! 	c #00AD00",
"~ 	c #E18661",
"{ 	c #A7BCF7",
"] 	c #5C9AFF",
"^ 	c #8DC784",
"/ 	c #E3856D",
"( 	c #7F9EF4",
"_ 	c #FF9C3A",
": 	c #D55100",
"< 	c #FF9E3A",
"[ 	c #562205",
"} 	c #00AF00",
"| 	c #DC5300",
"1 	c #6E88E2",
"2 	c #E87200",
"3 	c #EC8E6C",
"4 	c #B8DE86",
"5 	c #6B3700",
"6 	c #480000",
"7 	c #CC4100",
"8 	c #300000",
"9 	c #5A514F",
"0 	c #D33F00",
"a 	c #FFC6B6",
"b 	c #4781E2",
"c 	c #540C00",
"d 	c #8C2900",
"e 	c #D34700",
"f 	c #FFD3C7",
"g 	c #AA5D70",
"h 	c #BF4300",
"i 	c #678BEB",
"j 	c #903709",
"k 	c #007100",
"l 	c #515151",
"m 	c #DD5E00",
"n 	c #1F569E",
"o 	c #854900",
"p 	c #008200",
"q 	c #661100",
"r 	c #510000",
"s 	c #EFC1B4",
"t 	c #E48722",
"u 	c #652606",
"v 	c #792E07",
"w 	c #DA6F46",
"x 	c #E5C9C2",
"y 	c #F0A188",
"z 	c #4C1800",
"A 	c #B36E29",
"B 	c #A23E0A",
"C 	c #3A0000",
"D 	c #B1430B",
"E 	c #F1B6A5",
"F 	c #D86638",
"G 	c #D55D27",
"H 	c #A33500",
"I 	c #E59276",
"J 	c #C9C1C1",
"K 	c #DE7B57",
"L 	c #B84300",
"M 	c #513A33",
"N 	c #9ED9FD",
"O 	c #A15B00",
"P 	c #140000",
"Q 	c #230000",
"R 	c #6EC80E",
"S 	c #DFC7C2",
"T 	c #684940",
"U 	c #656B6D",
"V 	c #771800",
"W 	c #861F00",
"X 	c #DDF1FE",
"Y 	c #F0F9FF",
"Z 	c #00B0FB",
"` 	c #49BFFC",
" .	c #A9A499",
"..	c #000047",
"+.	c #621800",
"@.	c #E18933",
"#.	c #D40E00",
"$.	c #EB6C25",
"%.	c #D58230",
"&.	c #301203",
"*.	c #3F1804",
"=.	c #003600",
"-.	c #0C3B22",
";.	c #009800",
">.	c #456ABD",
",.	c #4E74D6",
"'.	c #004400",
").	c #005C00",
"!.	c #4E7F00",
"~.	c #6EB300",
"{.	c #5BC00B",
"].	c #62A000",
"^.	c #829FE0",
"/.	c #9A5736",
"(.	c #B6B2B2",
"_.	c #72797C",
":.	c #A57F75",
"<.	c #8A8C8E",
"[.	c #BA7057",
"}.	c #8C3E1A",
"|.	c #875F53",
"1.	c #7C412A",
"2.	c #FFE1D9",
"3.	c #4D2A1D",
"4.	c #8A726C",
"5.	c #9C8B87",
"6.	c #423936",
"7.	c #895442",
"8.	c #2A3A3F",
"9.	c #685F5D",
"0.	c #CA7C62",
"a.	c #D99783",
"b.	c #AB8D86",
"c.	c #C7AFA9",
"d.	c #7D8588",
"e.	c #AB522D",
"f.	c #083674",
"g.	c #3E537F",
"h.	c #1F2F4E",
"i.	c #687081",
"j.	c #7F7967",
"k.	c #496AA9",
"l.	c #001E48",
"m.	c #D8D5CD",
"n.	c #9DA2AC",
"o.	c #757E94",
"p.	c #506082",
"q.	c #38445D",
"r.	c #BBE3FE",
"s.	c #645C48",
"t.	c #85D4FF",
"u.	c #5871A4",
"v.	c #868070",
"w.	c #2A5FB6",
"x.	c #E1F5FF",
"y.	c #002761",
"z.	c #845621",
"A.	c #AF591C",
"B.	c #593A17",
"C.	c #DC7628",
"D.	c #734A65",
"E.	c #9395D2",
"F.	c #A696BF",
"G.	c #AC5C8E",
"H.	c #FF9800",
"I.	c #B6517A",
"J.	c #CB938F",
"K.	c #EA9D68",
"L.	c #E83F00",
"M.	c #FFAD5E",
"N.	c #B9D4FF",
"O.	c #E1CFD5",
"P.	c #8A6370",
"Q.	c #A9728E",
"R.	c #AB695B",
"S.	c #BF8182",
"T.	c #001D00",
"U.	c #244F61",
"V.	c #3A5D48",
"W.	c #497622",
"X.	c #2D48A0",
"Y.	c #3A5E52",
"Z.	c #477300",
"`.	c #335400",
" +	c #00005D",
".+	c #2D2726",
"++	c #45702E",
"@+	c #406884",
"#+	c #8D7BB9",
"$+	c #B8564E",
"%+	c #72BA53",
"&+	c #C1A3B7",
"*+	c #124B5B",
"=+	c #765F1B",
"-+	c #348F36",
";+	c #7B972E",
">+	c #85AB57",
",+	c #5CA65A",
"'+	c #807F36",
")+	c #6868AE",
"!+	c #382B00",
"~+	c #B4CD63",
"{+	c #A9AD24",
"]+	c #9F9B00",
"^+	c #87B262",
"/+	c #6487CE",
"(+	c #703731",
"_+	c #CEA08E",
":+	c #001F27",
"<+	c #2E2421",
"                                                                                                                                ",
"                                                                                                                                ",
"                                                                                                                                ",
"                                                                                                                                ",
"                                                                                                                                ",
"                                                                                                                                ",
"                                                                                                                                ",
"                                                                                                                                ",
"                                                                                                                                ",
"                                                                                                                                ",
"                                                                                                                                ",
"                                                                                                                                ",
"                                                                                                                                ",
"                                                                                                                                ",
"                                                                                                                                ",
"                                                                                                                                ",
"                                                    = = = = =                                                                   ",
"                                            = ) b b =.-.-.=.>.b   =                                                             ",
"                                          = ,.n k ).} } } } k k @+>.]                                                           ",
"                                        = ,.k ;.! ! + + + + ! p k p >.=                                                         ",
"                                      = ,.k } + + + + + + + ; > > } p >.]                                                       ",
"                                    = ,.).! + + + + + + + } ; > > } ! p ,.]                                                     ",
"                                  = ,.k } + + + + + + + ;.> ;.=.=.! + ! p >.]                                                   ",
"                                = ,.).} + + + + + + + + ;.> ;.;.; + + + ! p w.]                                                 ",
"                              = b k ! + + + + + + + + + ;.T.;.+ + + + + + ! p >.=                                               ",
"                            = ,.k } + + + + + + + + + + + } + + + + + + + + ! p >.]                                             ",
"                          = ,.k ! + + + + + + + + + + + + + + + + + + + + + + ! p >.=                                           ",
"                        = ,.k } + + + + + + + + + + + + + + + + + + + + + + + + ! p >.]                                         ",
"                      = ,.).} + + + + + + + + + + + + + + + + + + + + + + + + + + ! p w.]                                       ",
"                    = ,.k } + + + + + + ! + + + + + + + + + + + + + + + + ! + + + + ! p k.]                                     ",
"                  = ,.k } + + + + + + ! k ! + + + + + + + + + + + + + + } k } + + + + ! p w.]                                   ",
"                = >.k ! + + + + + + + p > '.! + + + + + + + + + + + + ! k > ).! + + + + ! p k.=                                 ",
"              = ,.k } + + + + + + ! } p > =.} + + + + + + + + + + + + ! k > ).! + + + + + ! p >.]                               ",
"            = ,.k ! + + + + + + ! p =.p > '.! + + + + + + + + + + + + ! k > ).! + + + + + + ! p >.=                             ",
"          = ,.k } + + + + + + + ! k > } k ! + + + + + + + + + + + + + + } k } + + + + + + + + ! p k.]                           ",
"        = ,.k } + + + + + + + + ! k > } ! + + + + + + + + + + + + + + + + ! + + + + + + + + + + ! p w.]                         ",
"      = ,.k } + + + + + + + + + + ! } + + + + + + + + + + + + + + + + + + + + + + + + + + + + + + ! p k.]                       ",
"    = ,.k } + + + + + + + + + + + + + + + + + + + + + + + + + + + + + + + + + + + + + + + + + + + + ! p w.]                     ",
"  = >.k ! + + + + + + + + + + + + + + + + + + + + + + + + + + + + + + + + + + + + + + + + + + + + + + ! p >.=                   ",
"= ,.k } + + + + + + + + + + + + + + + + + + + + + + + + + + + + + + + + + + + + + + + + + + + + + + + + ! p >.]                 ",
">.k + ; ; ; + + ; ; + + ; ; ; ; ; + + ; ; + + + ; ; ; ; + ! + ; ; + + ; ; ; ; ; ! + ; ; + + ; ; ; ; ; + + ! p >.= * * * * * ) ) ",
"=+^ ^ ^ ^ ^ -+;+^ ^ >+;+^ ^ ^ ^ ^ ,+!.^ ^ ^ ;+^ ^ ^ ^ ^ ^ Z.^ ^ ^ ;+^+^ ^ ^ ^ ^ k >+^ ^ ;+;+^ ^ ^ ^ ^ -+;+^ ^ '+#+{ { { { { ^.#+",
"E / / / / / 3.E / / /._+/ / / / / 7._+/ / 0.:.I / / / / [.4.I / / 7.y / / / / / 9 % / / 1.E / / / / / 3.E / / /.E ~ ~ ~ ~ ~ 1._+",
"s 7 $ $ $ : 6 f 7 : V S 7 $ $ $ : W S e $ H (.w & $ $ $ L n.w & e U y & $ $ $ e U y 7 : z s 7 $ $ $ : z s 7 : V S 7 $ $ $ : V S ",
"s & . . . , 6 S H | V S e . . . - W J d | L n.w $ . . . L  .7.| | U y & . . . : 9.b.& | *.s & . . . , z S H | V S & . . . - V S ",
"s & . . . , z [.l 9 }.f & . . . - j [.l 9 T E w $ . . . L 1.T 9 l 0.a.& . . . , 3.R.l l e.s & . . . , z [.l 9 }.f 7 . . . - v [.",
"s & . . . , 6 2.% % |.S e . . . - W J % % a.n.w $ . . . L <.E % % U y & . . . : 9.f % % 6.s & . . . , z 2.% % |.S & . . . - V S ",
"s & . . . , 6 f 7 & V S e . . . - W J 7 & H (.w $ . . . L n.w & e U y & . . . : l y 7 e z f & . . . , z s 7 & V S e . . . , V S ",
":.h , . . L 4.y & - d 5.H , . . $ 7._+& . D U e.: . . , }.c.F $ : 8.R.$ - . . H 5.~ $ , z b.h , . . L 4.y $ - v 5.H , . . . |._+",
"J 4.q | | W J 7 . - W  .5.8 | : h <.K $ . D _.J 8 L : | l % & . : l J z d | | C f 7 . , z J 4.q | | V J 7 . - V (.5.8 | : L n.K ",
"s y x U U <.~ $ . , V S K f U U l E 7 . . L (.w f 5.U :+f 7 . . | U I a c.U 8.J e . . , z a y x U l <.K $ . - V x ~ f U U l % & ",
"s 0 . y I d.3 : : $ P S 0 0 y y l E e : | c (.w 0 3 y T x e : | d U y 0 w y R.(.: : : D > f 0 . y I <.K : : h P S 0 0 y y l % e ",
"e.l 9 9 T % 9.*.9 l /.. l 9 9 9 0.(.8 9 9 T | T 9 9 9 /.S P 9 9 l : 7.9 9 9 7.f P M 9 l D e.l 9 9 T E 9.3.9 l /.. l 9 9 9 I  .C ",
"% % % % % % M % % % [.a.% % % % % |.a.% % a.[.% % % % % a.|.% % % /.% % % % % % M % % % /.% % % % % % M % % % [.a.% % % % % |.a.",
"s 7 & & & e 6 f 7 & V S 7 & & & & W J 0 & H (.F & & & & L n.w & e U y 7 & & & e U y 7 e *.s 7 & & & e z s 7 & q S 7 & & & & V S ",
"s & . . . , 6 x h : V S e . . . - W J H , L n.w $ . . . L  .[.: | U y & . . . : U _+& | *.s & . . . , z x h : V S & . . . - V S ",
"s & . . . , z [.> 6 V x & . . . - j [.> 6 q E w $ . . . L 7.&.6 C 0.a.& . . . , 3.1.8 6 B s & . . . , [ /.P 6 W f 7 . . . - v [.",
"s & . . . , 6 2.f f 4.S e . . . - W J f f c. .w $ . . . L <.f f f l y & . . . : 9.2.f f 9 s & . . . , z 2.f f 4.S & . . . - V S ",
"s & . . . , 6 f 7 e V S e . . . - W S 0 e H (.w $ . . . L n.w 7 e U y & . . . : 9.y 7 e z f & . . . , z s 7 e V S e . . . - V S ",
"_+& - . . $ T E & - V c.h , . . - }.S & . D <.e.: . . - B  .w $ : l a.$ - . . h _.y $ , z _+& - . . $ T E & - V c.h , . . $ 1.x ",
"5.7.d : : W J 0 . - j _.4.V : : h <.K $ . D l 5.V h : | l % & . : 8. .v H : | C f 7 . , z <.7.d : : V O.7 . - v <.4.V : : L n.w ",
"s _+c.3.3.4.I $ . - V S a.S 3.M M E . . . L (.I S 4.M &.x G $ . : U % S 5.3.*.c.w $ . , z f _+c.3.3.5.I $ . , V x a.S 3.M T % . ",
"s 0 F a E d.3 : , . 6 S 0 0 a a l E e , , V (.w 0 y a T x e , , D U y 0 3 a :.J : , , L Q f 0 F a E <.K : , . C S 0 0 a a l % e ",
"[.z [ c r a.4.z [ *.u K z [ c 6 [.c.c [ [ &.w 1.[ c c W x 6 [ [ > F /.[ [ c V s [ [ [ &.j [.z [ c r % |.z [ *.u K z [ c 6 [.c.c "};
