/* XPM */
static char * south_xpm[] = {
"64 64 10 1",
" 	c #404040",
".	c #C0C0C0",
"+	c #757575",
"@	c #8B8B8B",
"#	c #2D2C2C",
"$	c #393939",
"%	c #2B2B2B",
"&	c #818181",
"*	c #5D5D5D",
"=	c #4E4E4E",
"                                                                ",
" ........  ........+  ........+  ........+  .......+  ........+ ",
" .@@@@@@+# .@@@@@@@+# .@@@@@@@+# .@@@@@@@+# .@@@@@@+# .@@@@@@@+#",
" .@++++++# .++++++++# .++++++++# .++++++++# .+++++++# .++++++@+#",
" .@+################# ##########  ######### ######### ######.@+#",
" .@+#$$$$$$$$$%$&******=%$$&*****=%$&******=%$&******=%$&***.@+#",
" .@+#$&&&&&&*=%$&******=%$&&****$=%$&******=$$&******=%$&***.@+#",
" .@+#$&******=%$&******=%$&******=%$&******=%$&******=%$&***.@+#",
" .@+#$&******=%$&******=%$&******=%$&******=%$&******=%$&***.@+#",
" +++#$&******=%$&******=%$&******=%$========%$&******=%$&***.@+#",
"  ###$&******=%$&******=%$&******=%$%%%%%%%%%$&******=%$&***####",
"    #$*******=%$&******=%$&******=%$$$$$$$$%$$&******=%$&***   #",
" ..+#$&******=%$&*=****=%$&******=%$$&&&&&&&$$&******=%%%===..+#",
" .@+#$&******=%$&=======%$&******=%$&&*****=%$&******=%%$%%%.@+#",
" .@+#$&******=%$%%%%%%%%%$&******=%$&******=%$&******=%%$$$%.@+#",
" .@+#$&******=%$$$$$$$$$$$&******=%$&*$****=%$&******=%%&&&&.@+#",
" .@+#$&******=%$$&&&&&&&$$&******=%$&******=%$&******=%$&***.@+#",
" .@+#$&******=%$&******=%$&******=%$&******=%$&******=%$&***.@+#",
" .@+#$&******=%$&******=%$&******=%$&******=%$&******=%$&***.++#",
" .@+#$&******=%$&******=%$&******=%$&******=%$&******=%$&***##+#",
" .++#$&******=%$&&*****=%$&******=%$&******=%$========%$&***   #",
"  ###$&**==*==%$&&*****=%$&****===%$&******=%$%%%%%%%%%$&***..+#",
" ####$========%$&******=%$======%%%$&******=%$$$$$$$$$$$&***.@+#",
" ..+#$%%%%%%%%$$&******=%$%%%%%%%$$$&******=%$$&&&&&&=%$&***.@+#",
" .@+#$$$$$$$$$$$&******=%$$$$$$$$$%$&******=%$&&*****=%$&***.@+#",
" .@+#$$&&&&&&=$$&******=%$&&&&&&&&%$&******=%$&******=%$&***.@+#",
" .@+#$*******=%$&******=%$&******=%$&******=%$&*$****=%$&***.@+#",
" .@+#$&******=%$&******=%$&******=%$&******=%$&******=%$%===.@+#",
" .@+#$&*$****=%$&******=%$&******=%$&******=%$&******=%$$%%%.@+#",
" .@+#$&******=%$&******=%$&******=%$&******=%$&******=%$$$$$.++#",
" .@+#$&******=%$&******=%$&******=%$========%$&******=%$&&&&####",
" .++#$&******=%$&******=%$&******=%$%%%%%%%%%$&******=%$&***   #",
" ####$&******=%$&*****==%$&******=%$$$$$$$$$$$&******=%$&***..+#",
"  #  $&******=%$&******=%$&******=%$&&&&&&&=$$&******=%$&***.@+#",
" ..  $&******=%$&=======%$&******=%$&******=$$&******=%$&***.@+#",
" .@+#$&******=%$$====%%%$$&******=%$&******=%$&******=%$&***.@+#",
" .@+#$&******=%$$%%%%%$$$$&******=%$&******=%$&******=%$&***.@+#",
" .@+#$&******=%$&&&&&&&&$$&******=%$&******=%$&******=%$&***.@+#",
" .@+#$&******=%$&******=$$&******=%$&******=%$&******=%$&***.@+#",
" .@+#$&******=%$&******=%$&******=%$&******=%$&******=%$&***.@+#",
" .@+#$&******=%$&******=%$&******=%$&******=%$&*****==%$&***.++#",
" .@+#$&******=%$&******=%$========%$&$*****=%$&=======%$&*** ###",
" .++#$&******=%$&******=%$%%%%%%%%%$&******=%$$%%%%%%%%$$===.  #",
" ### $========%$&******=%$$$$$$$$$$$&******=%$$$$$$$$$$$$$%%..+#",
" .## $%%%%%%%%%$&******=%$$&&&&&&*%$&$*****=%$&&&&&&&=%$$$$$.@+#",
" ... $$$$$$$$$$$&******=%$&******=%$&******=%$&******=%$&&&&.@+#",
" .@+#$&&&&&&&=$$&******=%$&******=%$&******=%$&******=%$&***.@+#",
" .@+#$&******=$$&******=%$&*%****=%$&******=%$&******=%$&***.@+#",
" .@+#$&*******%$&******=%$&******=%$&******=%$&******=%$&***.@+#",
" .@+#$&******=%$&******=%$&******=%$&******=%$&******=%$&***.@+#",
" .@+#$&******=%$&******=%$&******=%$&$*****=%$&******=%$&***.@+#",
" .++#$&******=%$&******=%$&&&****=%$&******=%$&******=%$&***.++#",
" ####$&******=%$&******=%$%%&&&**=%$%======%%$&$*****=%$&***####",
"     $&&*****=%$&******=%$&=%%%%*=%$$%%%%%%%$$&******=%$&***####",
" ..+#$&$*****=%$&$*****=%$&******=%$$$$$$$$$$$&******=%$&***..+#",
" .@+#$&******=%$&*======%$&******=%$$&&&&&&=%$&******=%$&***.@+#",
" .@+#$&&*****=%$%*=====%%$&******=%$&&*****=%$&******=%$&***.@+#",
" .@+#$&$*****=%$%%%%%%%%$$&******=%$&******=%$&******=%$%===.@+#",
" .@+#$&******=%%$$$$$$$=$$&******=%$&******=%$&******=%$$%%%.@+#",
" .@+#$&******=%%$&&&&&&&$$&******=%$&******=%$&******=%$$$$%.@+#",
" .@+.....+  ..........+#........+ .......+  ........+# ......@+#",
" .@@@@@@@+# .@@@@@@@@++#.@@@@@@++#.@@@@@@+# .@@@@@@@+# .@@@@@@+#",
" .++++++++# .+++++++++##.+++++++##.+++++++# .@+++++++# .+++++++#",
"########### ##################### #################### #########"};
