/* XPM */
static char * warrior_xpm[] = {
"64 54 74 1",
" 	c None",
".	c #1F0206",
"+	c #45090F",
"@	c #641318",
"#	c #831E20",
"$	c #A12929",
"%	c #FDD5B7",
"&	c #281820",
"*	c #9E3E37",
"=	c #EAA377",
"-	c #D28560",
";	c #FBECE6",
">	c #50D4EC",
",	c #F2F8F9",
"'	c #5187B3",
")	c #293D4B",
"!	c #070007",
"~	c #311210",
"{	c #756962",
"]	c #352E36",
"^	c #4B2B13",
"/	c #877B75",
"(	c #231B24",
"_	c #595050",
":	c #7E767E",
"<	c #9C9191",
"[	c #75502D",
"}	c #4A444B",
"|	c #8D8789",
"1	c #756E76",
"2	c #B6AAA4",
"3	c #9A6F37",
"4	c #706970",
"5	c #8C868C",
"6	c #8F8484",
"7	c #3B343B",
"8	c #7B7575",
"9	c #686169",
"0	c #A99D97",
"a	c #585058",
"b	c #B0A9AA",
"c	c #332C35",
"d	c #6D6262",
"e	c #4F464F",
"f	c #5C575D",
"g	c #584C46",
"h	c #171018",
"i	c #AA8550",
"j	c #665D66",
"k	c #463E47",
"l	c #7F797F",
"m	c #411E05",
"n	c #BEB6B8",
"o	c #1D131E",
"p	c #4A5057",
"q	c #31313E",
"r	c #A8C4B1",
"s	c #2E2533",
"t	c #726B7E",
"u	c #6C6262",
"v	c #8D8787",
"w	c #352D36",
"x	c #453E47",
"y	c #400B0B",
"z	c #5C565D",
"A	c #4D464D",
"B	c #821616",
"C	c #9A1A1A",
"D	c #877B74",
"E	c #3D2923",
"F	c #221814",
"G	c #57352F",
"H	c #83534E",
"I	c #94605A",
"                                     .                          ",
"                          ...        +.                         ",
"                         .+@++..   ..@.                         ",
"                          .@@@++...++@#.                        ",
"                        ...+#@@++.+@#@@#.                       ",
"                      ..+@@#@#@@@++##@##@.++                    ",
"                     .+@#$$$#$#@#@+@###@+@#+                    ",
"                      .++++@@$@#$#@$#$##$$@.                    ",
"                       .+@#$$$#$$$#$$#$$$#.                     ",
"                      .@@#$$$$#$$$+#$$@$$@.                     ",
"                     .+@#$$$@#@$$#+@$$@$$#.                     ",
"                    .+@.$$#@#@+$$#.+#$#+#$@.                    ",
"                    .+.$#@@#@.+#$@..@#$.+##.                    ",
"                     .#@+@+@.%.@#.%%.@$#.+#+                    ",
"                     .@+.+@.%%%.@.%%%.@#..@#.                   ",
"                    .@...@.%%%%.+%%%%%.@.&.@+                   ",
"                   .+.*.+.%%%%%%.%%%%%=..*-+@                   ",
"                   ..%.+.=%;;%%%%%%;;===.=%.+                   ",
"                    &%=.==-**=%%%%=**-=-==%&.                   ",
"                    &%%=-=>&&>=%%=>&&>=-=%%&                    ",
"                     &&=-=,&',%%%%,'&,=-=&&                     ",
"                       &&=%)),%%%%,))%=&&                       ",
"                     !!~~-%%%%%%%%%%%%-~~!!                     ",
"                    !{]~^*=%%%%%%%%%%=*^~/(!                    ",
"                   !_:<~[~**=%%%%%%=**~[~:<}!                   ",
"                   !|12~[3~~********~~3[~12]!                   ",
"                  !_4<5~[33[~~~~~~~~[33[~<567!                  ",
"                  !890a~[333[[[[[[[[333[~0abc!                  ",
"                  !}de_~[33333333333333[~7df_!                  ",
"                 !{]|cg~[33333333333333[~h{]|c!                 ",
"                 !fded!~[[3i33333333i3[[~!fded!                 ",
"                 !jbk!!~^[[3i333333i3[[^~!!|92!                 ",
"                 !<ld! ~m^^[3iiiiii3[^^m~ !f6:!                 ",
"                 !n1/! !opp^^[[[[[[^^ppo! !|12!                 ",
"                 !!!!!&!oqqqpprrrrppqqqo!&!!!!!                 ",
"                 &=%%=&~ooqqqqrssrqqqooo!&=%%=&                 ",
"                 &=;%%%~~~oooottttooo~~~!%%%;=&                 ",
"                 &-%%*%~~^mmmmm~mmmmmm^~!%*%%-&                 ",
"                 &*%%**~~^^[[[[~~[[[[^^~!**%%*&                 ",
"                  &-%==!~~^^[[[~~~[[^^~~!==%-&                  ",
"                   &&&!864~~~~~~u~~~~~6l_!&&&                   ",
"                      !}b9/]vw|k/]vx/]ba{!                      ",
"                      y!!7dzufdedfdAuf_!!y                      ",
"                      yBC!!|w|k/]|kDc!!CBy                      ",
"                      y&BCC!!!!!!!!!!CCB&y                      ",
"                      yE&&&y        y&&&Ey                      ",
"                     &FGGGGE&      &EGGGGF&                     ",
"                     &GHHHGF&      &FGHHGG&                     ",
"                    &FHHHHHG&      &GHHHHGF&                    ",
"                    &HHHHHHG&      &GHHHHHH&                    ",
"                    &GHIIIH&        &HIIIHG&                    ",
"                     &&&&&&          &&&&&&                     ",
"                                                                ",
"                                                                "};
